<svg width="96" height="35" viewBox="6 -4 96 35" fill="none" xmlns="http://www.w3.org/2000/svg">
<g filter="url(#filter0_d_1588_22102)">
<path d="M11.1626 22.8233C9.0511 22.8233 7.99689 21.7542 8.00001 19.616C8.00175 19.3095 8.0236 19.0034 8.06541 18.6997C8.10745 18.3835 8.17285 18.0445 8.25694 17.6779L10.0555 9.49023H13.4704L11.854 16.9403C11.7444 17.3457 11.6848 17.7626 11.6765 18.1819C11.6765 19.364 12.1857 19.9505 13.2134 19.9505C13.6423 19.946 14.0661 19.8589 14.4607 19.6939C14.9173 19.4953 15.3421 19.233 15.722 18.915C16.1784 18.5395 16.5751 18.0994 16.8993 17.6092L18.6744 9.49482H22.1174L20.0899 18.7043C20.0718 18.7829 20.0577 18.8624 20.0479 18.9425C20.0434 19.0127 20.0434 19.0831 20.0479 19.1533C20.0479 19.5015 20.2581 19.6848 20.6692 19.6985L20.0479 22.5713L19.2397 22.6996C19.0309 22.7308 18.8202 22.7477 18.609 22.75C18.1161 22.7762 17.6268 22.653 17.2076 22.3972C17.0366 22.2759 16.9 22.1137 16.8109 21.926C16.7218 21.7384 16.683 21.5315 16.6984 21.3251C16.6984 21.2426 16.6984 21.1509 16.6984 21.0501C16.6984 20.9493 16.7264 20.8211 16.7498 20.6653C16.7731 20.5095 16.8152 20.3262 16.8666 20.1292C16.1441 20.9746 15.2458 21.6588 14.2318 22.136C13.2738 22.5866 12.2251 22.8214 11.1626 22.8233V22.8233Z" fill="#0C46C6"/>
<path d="M25.6153 9.34904H28.8872L26.1747 22.8232H22.9028L25.6153 9.34904ZM26.6897 4H29.9615L29.2778 7.45115H26.006L26.6897 4Z" fill="#0C46C6"/>
<path d="M35.4036 22.8197C34.3558 22.8562 33.3193 22.5864 32.4126 22.0411C31.614 21.5455 30.973 20.8181 30.5691 19.949C30.1592 19.0539 29.9511 18.0739 29.9608 17.0831C29.9594 16.0116 30.1663 14.9509 30.5691 13.9641C30.9712 12.9633 31.553 12.0508 32.2835 11.2749C33.0295 10.4771 33.9208 9.84073 34.9058 9.40254C35.9631 8.93553 37.1025 8.7013 38.2517 8.71472C39.4494 8.64448 40.6366 8.97977 41.6344 9.67002C42.4568 10.2944 43.0435 11.1963 43.2935 12.2207L39.7956 13.2715C39.6557 12.8001 39.3708 12.3891 38.9845 12.1012C38.5901 11.8224 38.1206 11.6802 37.6433 11.6952C37.1111 11.6968 36.5862 11.8242 36.1087 12.0678C35.5996 12.3259 35.1441 12.6845 34.7676 13.1234C34.3706 13.5901 34.0583 14.1273 33.8458 14.7092C33.6166 15.3263 33.5009 15.9824 33.5048 16.6437C33.4952 17.2089 33.5988 17.77 33.809 18.2916C33.9876 18.7429 34.2865 19.1322 34.6708 19.414C35.0515 19.6802 35.502 19.8186 35.9612 19.8105C36.3392 19.8112 36.7141 19.7399 37.0673 19.6003C37.4276 19.4628 37.7651 19.2678 38.0673 19.0224C38.3597 18.7916 38.6082 18.5065 38.8001 18.1817L41.8925 19.2325C41.4426 19.937 40.8872 20.5626 40.2472 21.0858C38.8715 22.2209 37.1619 22.8329 35.4036 22.8197V22.8197Z" fill="#0C46C6"/>
<path d="M49.0282 22.8175C47.8911 22.8654 46.763 22.5959 45.7692 22.0389C44.949 21.5481 44.2968 20.8183 43.8995 19.9466C43.4886 19.038 43.2823 18.0496 43.2953 17.0518C43.2906 15.9639 43.5008 14.8858 43.9137 13.88C44.3176 12.8854 44.907 11.9774 45.6503 11.2049C46.4068 10.4224 47.3109 9.79886 48.3098 9.37059C49.3727 8.92245 50.5159 8.69809 51.6687 8.71138C52.809 8.66169 53.9407 8.93127 54.9372 9.49001C55.7545 9.97795 56.4062 10.7022 56.807 11.568C57.2208 12.4806 57.4272 13.4744 57.4112 14.4771C57.4155 15.5645 57.2069 16.6422 56.7974 17.6489C56.3901 18.6428 55.7993 19.5504 55.0561 20.324C54.3005 21.1054 53.3982 21.7288 52.4014 22.1583C51.3337 22.6072 50.1857 22.8315 49.0282 22.8175ZM49.5515 19.8224C50.0949 19.8212 50.6311 19.6988 51.1216 19.4641C51.635 19.2148 52.093 18.8638 52.468 18.4323C52.8759 17.9696 53.1982 17.4374 53.4195 16.8607C53.6601 16.2364 53.7796 15.5716 53.7716 14.9022C53.7829 14.3289 53.681 13.7591 53.4718 13.2255C53.2876 12.7671 52.9691 12.3756 52.5584 12.103C52.1334 11.8293 51.6358 11.691 51.1311 11.7065C50.5923 11.7068 50.0604 11.8292 49.5753 12.0647C49.0649 12.319 48.6079 12.6693 48.2289 13.0966C47.8177 13.5622 47.4952 14.0998 47.2774 14.6825C47.0398 15.3126 46.9204 15.9815 46.9253 16.6553C46.9156 17.2192 47.0175 17.7793 47.2251 18.3033C47.4047 18.7575 47.7143 19.1481 48.1147 19.4259C48.5428 19.7007 49.0437 19.8389 49.5515 19.8224V19.8224Z" fill="#0C46C6"/>
<path d="M63.6222 22.8213C62.7434 22.8474 61.878 22.5972 61.1433 22.1047C60.4486 21.6239 59.8955 20.9589 59.5435 20.1814C59.1561 19.311 58.9641 18.3633 58.9816 17.4075C58.9733 16.3433 59.1641 15.2873 59.5435 14.296C59.9135 13.3275 60.449 12.4337 61.1251 11.6561C61.7717 10.9086 62.5494 10.2908 63.4183 9.83456C64.2592 9.39324 65.1918 9.16489 66.1374 9.16881C66.958 9.14568 67.7634 9.39738 68.4306 9.88541C69.0411 10.3369 69.4951 10.9749 69.7267 11.707L71.3264 4H74.6664L71.6255 18.6465C71.6255 18.7343 71.5893 18.8129 71.5757 18.8915C71.5583 18.9611 71.5492 19.0325 71.5485 19.1042C71.5485 19.4602 71.7479 19.6497 72.1467 19.6636L71.5485 22.5624L70.7645 22.6918C70.571 22.7224 70.3756 22.7394 70.1799 22.7427C69.6934 22.7679 69.211 22.6404 68.7976 22.3775C68.6298 22.2591 68.4946 22.0987 68.4049 21.9117C68.3152 21.7247 68.2741 21.5173 68.2855 21.3095C68.2871 21.2166 68.2946 21.1239 68.3082 21.0321C68.3082 20.9304 68.3444 20.8194 68.358 20.6946C68.3716 20.5698 68.3988 20.4311 68.4351 20.2785C67.8297 21.0744 67.0549 21.7194 66.1691 22.1648C65.3808 22.5801 64.5093 22.8047 63.6222 22.8213V22.8213ZM65.1177 19.9225C65.4267 19.9215 65.7332 19.8668 66.0241 19.7607C66.353 19.6434 66.6677 19.4883 66.9622 19.2984C67.2744 19.1037 67.562 18.8708 67.8187 18.6049C68.0771 18.3404 68.3038 18.0455 68.494 17.7265L69.1421 14.5826C69.097 14.1198 68.9414 13.6753 68.6889 13.2881C68.4574 12.9154 68.1479 12.5996 67.7825 12.3635C67.4297 12.1461 67.0254 12.031 66.6133 12.0306C66.0766 12.0322 65.5493 12.1738 65.0815 12.4421C64.5813 12.7201 64.137 13.0918 63.7718 13.5378C63.3888 14.0002 63.0827 14.5233 62.8654 15.0866C62.6455 15.6452 62.5317 16.2414 62.53 16.8434C62.5244 17.3775 62.6343 17.9064 62.8518 18.3922C63.0516 18.8341 63.3648 19.2127 63.7582 19.4879C64.1569 19.7681 64.629 19.9195 65.1132 19.9225H65.1177Z" fill="#0C46C6"/>
<path d="M80.1866 22.8209C79.1546 22.8488 78.1342 22.5925 77.2327 22.0788C76.4131 21.6 75.7494 20.8858 75.3243 20.0249C74.8762 19.0982 74.6512 18.0756 74.6679 17.0423C74.6662 15.9489 74.8848 14.8668 75.3102 13.8633C75.7366 12.8617 76.3497 11.9544 77.1154 11.1919C78.7344 9.57667 80.9147 8.68308 83.1781 8.70712C84.048 8.68847 84.9134 8.83792 85.7289 9.14758C86.3987 9.40435 86.9816 9.85323 87.4075 10.4402C87.8146 11.0498 88.0215 11.7758 87.9983 12.5132C88.0102 13.1898 87.8336 13.8559 87.4891 14.4339C87.1446 15.012 86.6464 15.4782 86.0524 15.7784C84.752 16.5252 82.8046 16.8986 80.2101 16.8986C79.6943 16.8986 79.1363 16.8843 78.5362 16.8556C77.9313 16.8556 77.2796 16.7837 76.5762 16.7119L77.0123 14.5001C77.6312 14.5527 78.1986 14.5958 78.7143 14.6198C79.2301 14.6437 79.7365 14.6581 80.2382 14.6581C81.1253 14.6796 82.012 14.6025 82.8827 14.4283C83.402 14.3376 83.8878 14.1061 84.2894 13.758C84.4295 13.6276 84.5412 13.4686 84.6171 13.2912C84.693 13.1139 84.7316 12.9222 84.7302 12.7287C84.7422 12.4273 84.651 12.131 84.4723 11.8909C84.2808 11.6714 84.0368 11.5065 83.7642 11.4121C83.4182 11.2944 83.0551 11.2377 82.6905 11.2445C82.0462 11.2399 81.4116 11.4048 80.8478 11.7233C80.2793 12.0526 79.783 12.4975 79.3895 13.0303C78.9733 13.6013 78.6562 14.2409 78.4518 14.9214C78.2236 15.6485 78.1097 16.408 78.1142 17.1715C78.1058 17.7184 78.208 18.2611 78.4143 18.7658C78.5923 19.2155 78.9017 19.5984 79.3005 19.8621C79.7621 20.1365 80.2906 20.271 80.8243 20.2499C81.5017 20.2568 82.1702 20.0923 82.7702 19.7712C83.37 19.4468 83.8736 18.964 84.2284 18.3732L86.9621 19.2446C86.4917 19.9691 85.8977 20.6016 85.2084 21.1117C84.4853 21.6576 83.6854 22.0886 82.8359 22.39C81.983 22.6854 81.0872 22.8311 80.1866 22.8209V22.8209Z" fill="#0C46C6"/>
</g>
<defs>
<filter id="filter0_d_1588_22102" x="0" y="0" width="96" height="34.8232" filterUnits="userSpaceOnUse" color-interpolation-filters="sRGB">
<feFlood flood-opacity="0" result="BackgroundImageFix"/>
<feColorMatrix in="SourceAlpha" type="matrix" values="0 0 0 0 0 0 0 0 0 0 0 0 0 0 0 0 0 0 127 0" result="hardAlpha"/>
<feOffset dy="4"/>
<feGaussianBlur stdDeviation="4"/>
<feColorMatrix type="matrix" values="0 0 0 0 0.2 0 0 0 0 0.2 0 0 0 0 0.2 0 0 0 0.05 0"/>
<feBlend mode="normal" in2="BackgroundImageFix" result="effect1_dropShadow_1588_22102"/>
<feBlend mode="normal" in="SourceGraphic" in2="effect1_dropShadow_1588_22102" result="shape"/>
</filter>
</defs>
</svg>
